#N canvas 251 36 917 595 12;
#X obj 244 202 bng 25 250 50 0 empty empty empty 17 7 0 10 #191919 #e1e1e1 #e1e1e1;
#X obj 40 179 netreceive -u -b;
#X obj 40 218 osc.parse;
#X obj 40 254 osc.route /wav_path;
#X obj -300 508 play.file~;
#X msg -298 296 open \$1;
#X obj 40 295 any2symbol;
#X obj -160 344 bng 25 250 50 0 empty empty empty 17 7 0 10 #191919 #e1e1e1 #e1e1e1;
#X msg -262 436 loop \$1;
#X obj -262 391 tgl 25 0 empty empty empty 17 7 0 10 #191919 #e1e1e1 #e1e1e1 0 1;
#X obj 40 93 loadbang;
#X obj -300 487 *~;
#X msg 40 134 listen 12001;
#X text 62 58 info_reception;
#X obj 51 391 clone phone 100;
#X obj 420 266 f 5;
#X obj 420 301 phasor;
#X connect 1 0 0 0;
#X connect 1 0 2 0;
#X connect 2 0 3 0;
#X connect 3 0 6 0;
#X connect 4 0 11 0;
#X connect 5 0 4 0;
#X connect 5 0 7 0;
#X connect 6 0 14 0;
#X connect 8 0 4 0;
#X connect 9 0 8 0;
#X connect 10 0 12 0;
#X connect 12 0 1 0;
