#N canvas 183 30 1366 685 12;
#X declare -path C:UsersgabriDocumentsPdexternals -lib mrpeach;
#X obj 213 333 soundfiler;
#X floatatom 275 381 5 0 0 0 empty - - 12;
#X floatatom 167 369 5 0 0 0 empty - - 12;
#N canvas 0 0 450 250 (subpatch) 0;
#X array sample 100 float 4;
#X coords 0 1 99 -1 200 140 1;
#X restore 865 121 graph;
#X obj 149 148 bng 25 250 50 0 empty empty empty 17 7 0 10 #191919 #e1e1e1 #e1e1e1;
#X obj 270 121 udpreceive 9001;
#X msg 275 198;
#X obj 82 51 declare -path C:UsersgabriDocumentsPdexternals -lib mrpeach;
#X obj 214 198 b2f;
#X connect 0 0 2 0;
#X connect 0 1 1 0;
#X connect 5 0 4 0;
#X connect 5 0 6 0;
#X connect 5 0 8 0;
