#N canvas 251 36 917 595 12;
#X obj 277 135 bng 25 250 50 0 empty empty empty 17 7 0 10 #191919 #e1e1e1 #e1e1e1;
#X obj 73 112 netreceive -u -b;
#X obj 73 151 osc.parse;
#X obj 73 187 osc.route /wav_path;
#X obj 603 187 soundfiler;
#X obj 71 509 play.file~;
#X obj 64 775 dac~;
#X msg 73 297 open \$1;
#X obj 73 228 any2symbol;
#N canvas 0 0 450 250 (subpatch) 0;
#X array sample_table 640 float 4;
#X coords 0 1 639 -1 200 140 1;
#X restore 591 377 graph;
#X floatatom 543 267 8 0 0 0 empty - - 12;
#X obj 642 267 / 44100;
#X floatatom 642 317 5 0 0 0 empty - - 12;
#X msg 706 206, f 13;
#X obj 723 245 unpack f f f f;
#X floatatom 735 299 5 0 0 0 empty - - 12;
#X msg 603 123 read -resize \$1 sample_table;
#X obj 211 345 bng 25 250 50 0 empty empty empty 17 7 0 10 #191919 #e1e1e1 #e1e1e1;
#X obj 295 468 vline~;
#X msg 109 437 loop \$1;
#X obj 109 392 tgl 25 0 empty empty empty 17 7 0 10 #191919 #e1e1e1 #e1e1e1 0 1;
#X obj 73 26 loadbang;
#X obj 71 585 *~;
#X msg 257 395 0 0 \, 0.8 200 \, 0 100 200;
#X obj 603 77 r fpath;
#X obj 263 245 s fpath;
#X obj 365 245 delay 20;
#X msg 73 67 listen 12001;
#X obj 71 678 *~ 20;
#X connect 0 0 26 0;
#X connect 1 0 0 0;
#X connect 1 0 2 0;
#X connect 2 0 3 0;
#X connect 3 0 8 0;
#X connect 4 0 10 0;
#X connect 4 0 11 0;
#X connect 4 1 13 0;
#X connect 5 0 22 0;
#X connect 7 0 5 0;
#X connect 7 0 17 0;
#X connect 8 0 7 0;
#X connect 8 0 25 0;
#X connect 11 0 12 0;
#X connect 13 0 14 0;
#X connect 14 0 15 0;
#X connect 16 0 4 0;
#X connect 17 0 23 0;
#X connect 18 0 22 1;
#X connect 19 0 5 0;
#X connect 20 0 19 0;
#X connect 21 0 27 0;
#X connect 22 0 28 0;
#X connect 23 0 18 0;
#X connect 24 0 16 0;
#X connect 27 0 1 0;
#X connect 28 0 6 0;
#X connect 28 0 6 1;
