#N canvas 0 50 450 300 12;
#X obj 458 272 soundfiler;
#X obj 510 329 / 44100;
#X floatatom 505 380 5 0 0 0 empty - - 12;
#X obj 113 197 bng 25 250 50 0 empty empty empty 17 7 0 10 #191919 #e1e1e1 #e1e1e1;
#X obj 113 154 metro 1 1 second;
#X obj 30 158 tgl 25 0 empty empty empty 17 7 0 10 #191919 #e1e1e1 #e1e1e1 0 1;
#X msg -115 208 0;
#X obj -115 158 delay 1 1 second;
#X obj 291 589 outlet~;
#X obj 305 197 bng 25 250 50 0 empty empty empty 17 7 0 10 #191919 #e1e1e1 #e1e1e1;
#X obj 458 44 inlet;
#X obj 458 87 pack s \$0;
#X obj 596 68 array define \$0-sample;
#X msg 458 197 read -resize \$1 \$2-sample;
#X obj 291 346 tabplay~ \$0-sample;
#X obj 445 455 palette/adsr;
#X obj 315 455 *~;
#X obj 767 303 loadbang;
#X msg 735 363 20;
#X msg 666 363 20;
#X msg 797 363 500;
#X msg 866 363 30;
#X obj 271 523 lop~ 4000;
#X connect 0 0 1 0;
#X connect 0 0 9 0;
#X connect 1 0 2 0;
#X connect 3 0 7 0;
#X connect 4 0 3 0;
#X connect 5 0 4 0;
#X connect 6 0 5 0;
#X connect 7 0 6 0;
#X connect 9 0 14 0;
#X connect 9 0 15 0;
#X connect 10 0 11 0;
#X connect 11 0 13 0;
#X connect 13 0 0 0;
#X connect 13 0 9 0;
#X connect 14 0 16 0;
#X connect 15 0 16 1;
#X connect 16 0 22 0;
#X connect 17 0 19 0;
#X connect 17 0 18 0;
#X connect 17 0 20 0;
#X connect 17 0 21 0;
#X connect 18 0 15 2;
#X connect 19 0 15 1;
#X connect 20 0 15 3;
#X connect 21 0 15 4;
#X connect 22 0 8 0;
