#N canvas 0 50 450 300 12;
#X obj 469 208 soundfiler;
#X floatatom 393 275 8 0 0 0 empty - - 12;
#X obj 521 265 / 44100;
#X floatatom 521 315 5 0 0 0 empty - - 12;
#X obj 469 87 inlet;
#X obj 393 382 vline~;
#X msg 393 338 0 \, 1 \$1;
#X obj 393 436 cos~;
#X obj 393 486 +~ 0.5;
#X obj 393 461 *~ -0.5;
#X text 436 432 // 'rounds it';
#X text 452 458 // scales it to 0-1;
#X text 885 417 envelope stuff --> bell_shape;
#X obj 393 530 tabread4~ \$0-sample_table;
#N canvas 0 0 450 250 (subpatch) 0;
#X array \$0-sample_table 640 float 4;
#X coords 0 1 639 -1 200 140 1;
#X restore 655 275 graph;
#X msg 469 144 read -resize \$1 \$0-sample_table;
#X obj 393 602 outlet~;
#X obj 125 469 phasor~;
#X floatatom 137 418 5 0 0 0 empty - - 12;
#X msg 266 275 1000;
#X obj 369 134 t b a;
#X obj 184 70 loadbang;
#X obj 100 188 metro 1000;
#X connect 0 0 1 0;
#X connect 0 0 2 0;
#X connect 1 0 6 0;
#X connect 2 0 3 0;
#X connect 4 0 20 0;
#X connect 5 0 7 0;
#X connect 6 0 5 0;
#X connect 7 0 9 0;
#X connect 8 0 13 0;
#X connect 9 0 8 0;
#X connect 13 0 16 0;
#X connect 15 0 0 0;
#X connect 20 0 22 0;
#X connect 20 1 15 0;
